<?xml version="1.0" encoding="utf-8"?>
<!-- Generator: Adobe Illustrator 22.0.0, SVG Export Plug-In . SVG Version: 6.00 Build 0)  -->
<svg version="1.1" id="Layer_1" xmlns="http://www.w3.org/2000/svg" xmlns:xlink="http://www.w3.org/1999/xlink" x="0px" y="0px"
	 viewBox="0 0 841.9 595.3" style="enable-background:new 0 0 841.9 595.3;" xml:space="preserve">
<style type="text/css">
	.st0{fill:#FFFFFF;}
	.st1{fill:#EF4036;}
	.st2{fill:#282560;}
	.st3{fill:#FAAF43;}
	.st4{clip-path:url(#SVGID_2_);fill:none;stroke:#282560;stroke-width:1.1461;stroke-miterlimit:10;}
	.st5{clip-path:url(#SVGID_4_);fill:none;stroke:#282560;stroke-width:1.1461;stroke-miterlimit:10;}
	.st6{clip-path:url(#SVGID_6_);fill:none;stroke:#282560;stroke-width:1.1461;stroke-miterlimit:10;}
	.st7{clip-path:url(#SVGID_8_);fill:#282560;}
	.st8{enable-background:new    ;}
</style>
<rect y="58.4" class="st0" width="841.9" height="481.1"/>
<path class="st1" d="M379.9,314.4v-1.9c3.9-0.4,4.3-0.7,4.3-4.9v-19.4c0-4.3-0.5-4.7-4.3-5v-1.9h15.7v1.9c-3.8,0.4-4.3,0.7-4.3,5
	v19.4c0,4.2,0.5,4.5,4.3,4.9v1.9H379.9z"/>
<path class="st2" d="M419.7,296.2c5.3,1,9.1,3.5,9.1,8.3c0,3.2-2,6.1-4.9,7.7c-2.6,1.4-5.9,2.1-9.7,2.1H400v-1.9
	c3.9-0.4,4.3-0.7,4.3-4.9v-19.4c0-4.3-0.7-4.7-4.3-5v-1.9h15.5c3.9,0,6.3,0.5,8.3,1.8c1.9,1.2,3.1,3.2,3.1,5.6
	C427,293,423,295.5,419.7,296.2z M413.3,295.5c4.8,0,6.6-2.1,6.6-5.9c0-4.4-2.9-6.1-5.7-6.1c-1.2,0-2,0.2-2.4,0.4
	c-0.6,0.4-0.5,0.8-0.5,1.9v9.7H413.3z M411.3,307.5c0,3.7,1.7,4.8,4.4,4.7c2.8-0.1,5.5-2.5,5.5-7.2c0-4.9-2.5-7.3-8.2-7.3h-1.8v9.8
	H411.3z"/>
<path class="st3" d="M452.6,289.7c-1-3.3-2.4-7-7.1-7c-3,0-4.9,2.1-4.9,4.9s1.9,4.5,6.4,6.7c5.4,2.7,8.9,5.3,8.9,10.4
	c0,6-5,10.4-12.3,10.4c-3.3,0-6.2-0.9-8.5-1.6c-0.3-1.2-1.2-6.5-1.5-8.9l2-0.5c1,3.2,3.9,8.8,8.9,8.8c3.1,0,5-1.9,5-5.2
	c0-3-1.8-4.7-6.1-7c-5.3-2.8-8.8-5.4-8.8-10.7c0-5.3,4.2-9.6,11.8-9.6c3.5,0,6.2,0.8,7.3,0.9c0.2,1.9,0.6,4.5,1,7.7L452.6,289.7z"/>
<path class="st2" d="M376.8,330.8v-0.3c0.6-0.1,0.6-0.1,0.6-0.8v-3.1c0-0.7-0.1-0.8-0.6-0.8v-0.3h2.3v0.3c-0.6,0.1-0.6,0.1-0.6,0.8
	v3.1c0,0.7,0.1,0.7,0.6,0.8v0.3H376.8z M381.8,330.8v-0.3c0.3,0,0.3-0.1,0.3-0.7v-1.4c0-0.6-0.3-0.8-0.5-0.8s-0.4,0.1-0.6,0.2v2
	c0,0.5,0,0.5,0.3,0.6v0.3h-1.7v-0.3c0.4-0.1,0.4-0.1,0.4-0.6v-1.7c0-0.5-0.1-0.5-0.4-0.6v-0.3c0.4-0.1,0.9-0.2,1.4-0.3
	c0,0.1,0,0.4,0,0.6c0.1-0.1,0.3-0.2,0.5-0.4c0.2-0.1,0.4-0.2,0.6-0.2c0.6,0,1,0.5,1,1.3v1.6c0,0.5,0,0.5,0.4,0.6v0.3L381.8,330.8
	L381.8,330.8z M385.3,330.8c-0.1,0.1-0.2,0.1-0.3,0.1c-0.6,0-0.9-0.3-0.9-1v-2.3h-0.5v-0.1l0.2-0.3h0.3v-0.7
	c0.3-0.2,0.6-0.5,0.9-0.7l0.1,0.1c0,0.2,0,0.7,0,1.3h0.7c0.1,0.1,0,0.3-0.1,0.4H385v2c0,0.6,0.2,0.7,0.4,0.7c0.1,0,0.2,0,0.4-0.1
	l0.1,0.3L385.3,330.8z M389.1,330c-0.5,0.7-1,0.9-1.4,0.9c-1,0-1.6-0.8-1.6-1.8c0-0.6,0.2-1.1,0.6-1.5c0.3-0.4,0.7-0.6,1.2-0.6
	c0.7,0,1.2,0.7,1.2,1.3c0,0.1,0,0.3-0.1,0.3s-1.2,0.1-1.9,0.1c0,0.9,0.5,1.3,1,1.3c0.3,0,0.6-0.1,0.8-0.4L389.1,330z M387.7,327.4
	c-0.3,0-0.5,0.4-0.6,1c0.3,0,0.6,0,0.9,0c0.1,0,0.1,0,0.1-0.2C388.2,327.8,388,327.4,387.7,327.4z M391.4,330.8h-2v-0.3
	c0.4,0,0.4-0.1,0.4-0.6v-1.8c0-0.4,0-0.5-0.4-0.5v-0.3c0.5-0.1,0.9-0.2,1.3-0.3c0,0.3,0,0.6,0,0.9c0.3-0.6,0.6-0.9,0.9-0.9
	s0.5,0.2,0.5,0.5c0,0.4-0.3,0.6-0.4,0.7c-0.1,0-0.2,0-0.2,0c-0.1-0.1-0.2-0.2-0.3-0.2c-0.1,0-0.3,0.1-0.4,0.4v1.6
	c0,0.5,0.1,0.5,0.6,0.6V330.8z M395,330.9c-0.2,0-0.4-0.1-0.5-0.2s-0.2-0.2-0.2-0.3c-0.3,0.2-0.6,0.5-0.8,0.5c-0.6,0-1-0.6-1-1.1
	c0-0.4,0.2-0.6,0.6-0.8c0.4-0.2,1-0.4,1.2-0.5v-0.4c0-0.4-0.1-0.7-0.5-0.7c-0.1,0-0.2,0.1-0.3,0.2c-0.1,0.1-0.1,0.3-0.2,0.5
	s-0.2,0.3-0.3,0.3c-0.2,0-0.4-0.2-0.4-0.4c0-0.1,0.1-0.3,0.3-0.4c0.3-0.2,0.8-0.5,1.2-0.6c0.3,0,0.5,0.1,0.8,0.2
	c0.3,0.2,0.4,0.6,0.4,1v1.4c0,0.4,0.1,0.5,0.2,0.5s0.1,0,0.2-0.1l0.1,0.3L395,330.9z M394.3,328.8c-0.1,0.1-0.3,0.2-0.4,0.3
	c-0.2,0.1-0.4,0.3-0.4,0.6c0,0.5,0.3,0.6,0.5,0.6c0.1,0,0.2,0,0.3-0.1C394.3,329.7,394.3,329.2,394.3,328.8z M398.9,330
	c-0.3,0.5-0.8,0.9-1.3,0.9c-1,0-1.6-0.9-1.6-1.8c0-0.6,0.3-1.2,0.8-1.6s1-0.5,1.3-0.5s0.5,0.1,0.7,0.2c0.1,0.1,0.1,0.2,0.1,0.3
	c0,0.2-0.2,0.5-0.3,0.5c-0.1,0-0.1,0-0.2-0.1c-0.3-0.3-0.6-0.4-0.8-0.4c-0.3,0-0.6,0.3-0.6,1.2c0,1.1,0.7,1.5,1,1.5s0.5-0.1,0.8-0.3
	L398.9,330z M400.9,330.8c-0.1,0.1-0.2,0.1-0.3,0.1c-0.6,0-0.9-0.3-0.9-1v-2.3h-0.5v-0.1l0.2-0.3h0.3v-0.7c0.3-0.2,0.6-0.5,0.9-0.7
	l0.1,0.1c0,0.2,0,0.7,0,1.3h0.7c0.1,0.1,0,0.3-0.1,0.4h-0.7v2c0,0.6,0.2,0.7,0.4,0.7c0.1,0,0.2,0,0.4-0.1l0.1,0.3L400.9,330.8z
	 M401.9,330.8v-0.3c0.4-0.1,0.4-0.1,0.4-0.7v-1.6c0-0.6,0-0.6-0.4-0.6v-0.3c0.5-0.1,0.9-0.2,1.3-0.3c0,0.3,0,0.7,0,1v1.8
	c0,0.6,0,0.6,0.5,0.7v0.3H401.9z M402.8,326.5c-0.3,0-0.5-0.3-0.5-0.6c0-0.3,0.3-0.6,0.5-0.6c0.3,0,0.5,0.2,0.5,0.6
	S403.1,326.5,402.8,326.5z M407.5,327.4c-0.4,0.1-0.5,0.2-0.6,0.6c-0.3,0.7-0.6,1.7-1.1,2.9h-0.3c-0.4-1-0.7-2-1.1-2.9
	c-0.1-0.4-0.2-0.5-0.6-0.5v-0.3h1.9v0.3c-0.3,0.1-0.4,0.1-0.3,0.4c0.2,0.6,0.5,1.4,0.6,1.7c0.1-0.4,0.4-1.1,0.5-1.7
	c0.1-0.2,0.1-0.4-0.4-0.5v-0.3h1.4V327.4z"/>
<path class="st2" d="M413.7,327.8c0.8,0.2,1.3,0.6,1.3,1.4c0,0.5-0.3,1-0.7,1.3c-0.4,0.2-0.9,0.3-1.4,0.3h-2.1v-0.3
	c0.6-0.1,0.6-0.1,0.6-0.8v-3.1c0-0.7-0.1-0.8-0.6-0.8v-0.3h2.3c0.6,0,0.9,0.1,1.2,0.3c0.3,0.2,0.5,0.5,0.5,0.9
	C414.7,327.3,414.1,327.7,413.7,327.8z M412.7,327.7c0.7,0,1-0.3,1-0.9c0-0.7-0.4-1-0.8-1c-0.2,0-0.3,0-0.3,0.1
	c-0.1,0.1-0.1,0.1-0.1,0.3v1.6h0.2V327.7z M412.4,329.7c0,0.6,0.2,0.8,0.6,0.8s0.8-0.4,0.8-1.2c0-0.8-0.4-1.2-1.2-1.2h-0.3v1.6
	H412.4z M419.2,330.6c-0.4,0.1-0.9,0.2-1.4,0.3c0-0.2,0-0.4,0-0.6c-0.3,0.3-0.6,0.6-1,0.6c-0.6,0-1-0.4-1-1.2V328
	c0-0.4,0-0.4-0.2-0.5h-0.2v-0.3c0.4,0,1-0.1,1.4-0.1c0,0.3,0,0.8,0,1.2v1.2c0,0.5,0.2,0.7,0.5,0.7c0.2,0,0.4,0,0.5-0.2v-2
	c0-0.4,0-0.4-0.2-0.5h-0.2v-0.3c0.4,0,1.1-0.1,1.4-0.1v2.7c0,0.4,0,0.5,0.3,0.5h0.2L419.2,330.6L419.2,330.6z M421.7,328.2
	c-0.2-0.6-0.4-0.8-0.8-0.8c-0.2,0-0.4,0.2-0.4,0.4c0,0.3,0.2,0.4,0.6,0.6c0.6,0.3,1,0.6,1,1.2c0,0.8-0.7,1.2-1.3,1.2
	c-0.4,0-0.8-0.2-0.9-0.2c0-0.2-0.1-0.8-0.1-1h0.2c0.2,0.5,0.5,1,0.9,1c0.3,0,0.4-0.2,0.4-0.4c0-0.3-0.1-0.4-0.6-0.7
	c-0.5-0.3-1-0.6-1-1.2c0-0.7,0.5-1.2,1.3-1.2c0.4,0,0.6,0.1,0.8,0.1c0,0.2,0.1,0.8,0.1,1H421.7z M422.4,330.8v-0.3
	c0.4-0.1,0.4-0.1,0.4-0.7v-1.6c0-0.6,0-0.6-0.4-0.6v-0.3c0.5-0.1,0.9-0.2,1.3-0.3c0,0.3,0,0.7,0,1v1.8c0,0.6,0,0.6,0.5,0.7v0.3
	H422.4z M423.3,326.5c-0.3,0-0.5-0.3-0.5-0.6c0-0.3,0.3-0.6,0.5-0.6c0.3,0,0.5,0.2,0.5,0.6S423.6,326.5,423.3,326.5z M426.9,330.8
	v-0.3c0.3,0,0.3-0.1,0.3-0.7v-1.4c0-0.6-0.3-0.8-0.5-0.8s-0.4,0.1-0.6,0.2v2c0,0.5,0,0.5,0.3,0.6v0.3h-1.7v-0.3
	c0.4-0.1,0.4-0.1,0.4-0.6v-1.7c0-0.5-0.1-0.5-0.4-0.6v-0.3c0.4-0.1,0.9-0.2,1.4-0.3c0,0.1,0,0.4,0,0.6c0.1-0.1,0.3-0.2,0.5-0.4
	c0.2-0.1,0.4-0.2,0.6-0.2c0.6,0,1,0.5,1,1.3v1.6c0,0.5,0,0.5,0.4,0.6v0.3L426.9,330.8L426.9,330.8z M431.8,330
	c-0.5,0.7-1,0.9-1.4,0.9c-1,0-1.6-0.8-1.6-1.8c0-0.6,0.2-1.1,0.6-1.5c0.3-0.4,0.7-0.6,1.2-0.6c0.7,0,1.2,0.7,1.2,1.3
	c0,0.1,0,0.3-0.1,0.3s-1.2,0.1-1.9,0.1c0,0.9,0.5,1.3,1,1.3c0.3,0,0.6-0.1,0.8-0.4L431.8,330z M430.4,327.4c-0.3,0-0.5,0.4-0.6,1
	c0.3,0,0.6,0,0.9,0c0.1,0,0.1,0,0.1-0.2C430.9,327.8,430.7,327.4,430.4,327.4z M434.3,328.2c-0.2-0.6-0.4-0.8-0.8-0.8
	c-0.2,0-0.4,0.2-0.4,0.4c0,0.3,0.2,0.4,0.6,0.6c0.6,0.3,1,0.6,1,1.2c0,0.8-0.7,1.2-1.3,1.2c-0.4,0-0.8-0.2-0.9-0.2
	c0-0.2-0.1-0.8-0.1-1h0.2c0.2,0.5,0.5,1,0.9,1c0.3,0,0.4-0.2,0.4-0.4c0-0.3-0.1-0.4-0.6-0.7c-0.5-0.3-1-0.6-1-1.2
	c0-0.7,0.5-1.2,1.3-1.2c0.4,0,0.6,0.1,0.8,0.1c0,0.2,0.1,0.8,0.1,1H434.3z M437.2,328.2c-0.2-0.6-0.4-0.8-0.8-0.8
	c-0.2,0-0.4,0.2-0.4,0.4c0,0.3,0.2,0.4,0.6,0.6c0.6,0.3,1,0.6,1,1.2c0,0.8-0.7,1.2-1.3,1.2c-0.4,0-0.8-0.2-0.9-0.2
	c0-0.2-0.1-0.8-0.1-1h0.2c0.2,0.5,0.5,1,0.9,1c0.3,0,0.4-0.2,0.4-0.4c0-0.3-0.1-0.4-0.6-0.7c-0.5-0.3-1-0.6-1-1.2
	c0-0.7,0.5-1.2,1.3-1.2c0.4,0,0.6,0.1,0.8,0.1c0,0.2,0.1,0.8,0.1,1H437.2z M442.1,326.8c-0.1-0.5-0.4-1.1-1-1.1
	c-0.4,0-0.7,0.3-0.7,0.8s0.3,0.7,0.9,1.1c0.8,0.4,1.3,0.9,1.3,1.7c0,1-0.7,1.7-1.8,1.7c-0.5,0-0.9-0.1-1.2-0.3c0-0.2-0.2-1-0.2-1.4
	l0.3-0.1c0.1,0.5,0.6,1.4,1.3,1.4c0.5,0,0.7-0.3,0.7-0.8s-0.3-0.8-0.9-1.1c-0.8-0.5-1.3-0.9-1.3-1.7c0-0.9,0.6-1.6,1.7-1.6
	c0.5,0,0.9,0.1,1.1,0.1c0,0.3,0.1,0.7,0.1,1.3H442.1z M446.1,330c-0.5,0.7-1,0.9-1.4,0.9c-1,0-1.6-0.8-1.6-1.8
	c0-0.6,0.2-1.1,0.6-1.5c0.3-0.4,0.7-0.6,1.2-0.6c0.7,0,1.2,0.7,1.2,1.3c0,0.1,0,0.3-0.1,0.3s-1.2,0.1-1.9,0.1c0,0.9,0.5,1.3,1,1.3
	c0.3,0,0.6-0.1,0.8-0.4L446.1,330z M444.7,327.4c-0.3,0-0.5,0.4-0.6,1c0.3,0,0.6,0,0.9,0c0.1,0,0.1,0,0.1-0.2
	C445.2,327.8,445,327.4,444.7,327.4z M448.4,330.8h-2v-0.3c0.4,0,0.4-0.1,0.4-0.6v-1.8c0-0.4,0-0.5-0.4-0.5v-0.3
	c0.5-0.1,0.9-0.2,1.3-0.3c0,0.3,0,0.6,0,0.9c0.3-0.6,0.6-0.9,0.9-0.9s0.5,0.2,0.5,0.5c0,0.4-0.3,0.6-0.4,0.7c-0.1,0-0.2,0-0.2,0
	c-0.1-0.1-0.2-0.2-0.3-0.2c-0.1,0-0.3,0.1-0.4,0.4v1.6c0,0.5,0.1,0.5,0.6,0.6V330.8z M453.2,327.4c-0.4,0.1-0.5,0.2-0.6,0.6
	c-0.3,0.7-0.6,1.7-1.1,2.9h-0.3c-0.4-1-0.7-2-1.1-2.9c-0.1-0.4-0.2-0.5-0.6-0.5v-0.3h1.9v0.3c-0.3,0.1-0.4,0.1-0.3,0.4
	c0.2,0.6,0.5,1.4,0.6,1.7c0.1-0.4,0.4-1.1,0.5-1.7c0.1-0.2,0.1-0.4-0.4-0.5v-0.3h1.4V327.4z M453.4,330.8v-0.3
	c0.4-0.1,0.4-0.1,0.4-0.7v-1.6c0-0.6,0-0.6-0.4-0.6v-0.3c0.5-0.1,0.9-0.2,1.3-0.3c0,0.3,0,0.7,0,1v1.8c0,0.6,0,0.6,0.5,0.7v0.3
	H453.4z M454.3,326.5c-0.3,0-0.5-0.3-0.5-0.6c0-0.3,0.3-0.6,0.5-0.6c0.3,0,0.5,0.2,0.5,0.6S454.6,326.5,454.3,326.5z M458.4,330
	c-0.3,0.5-0.8,0.9-1.3,0.9c-1,0-1.6-0.9-1.6-1.8c0-0.6,0.3-1.2,0.8-1.6s1-0.5,1.3-0.5s0.5,0.1,0.7,0.2c0.1,0.1,0.1,0.2,0.1,0.3
	c0,0.2-0.2,0.5-0.3,0.5c-0.1,0-0.1,0-0.2-0.1c-0.3-0.3-0.6-0.4-0.8-0.4c-0.3,0-0.6,0.3-0.6,1.2c0,1.1,0.7,1.5,1,1.5s0.5-0.1,0.8-0.3
	L458.4,330z M461.7,330c-0.5,0.7-1,0.9-1.4,0.9c-1,0-1.6-0.8-1.6-1.8c0-0.6,0.2-1.1,0.6-1.5c0.3-0.4,0.7-0.6,1.2-0.6
	c0.7,0,1.2,0.7,1.2,1.3c0,0.1,0,0.3-0.1,0.3s-1.2,0.1-1.9,0.1c0,0.9,0.5,1.3,1,1.3c0.3,0,0.6-0.1,0.8-0.4L461.7,330z M460.3,327.4
	c-0.3,0-0.5,0.4-0.6,1c0.3,0,0.6,0,0.9,0c0.1,0,0.1,0,0.1-0.2C460.8,327.8,460.6,327.4,460.3,327.4z M464.2,328.2
	c-0.2-0.6-0.4-0.8-0.8-0.8c-0.2,0-0.4,0.2-0.4,0.4c0,0.3,0.2,0.4,0.6,0.6c0.6,0.3,1,0.6,1,1.2c0,0.8-0.7,1.2-1.3,1.2
	c-0.4,0-0.8-0.2-0.9-0.2c0-0.2-0.1-0.8-0.1-1h0.2c0.2,0.5,0.5,1,0.9,1c0.3,0,0.4-0.2,0.4-0.4c0-0.3-0.1-0.4-0.6-0.7
	c-0.5-0.3-1-0.6-1-1.2c0-0.7,0.5-1.2,1.3-1.2c0.4,0,0.6,0.1,0.8,0.1c0,0.2,0.1,0.8,0.1,1H464.2z"/>
<g>
	<g>
		<defs>
			<rect id="SVGID_1_" x="128.8" y="141.4" width="577.6" height="330.1"/>
		</defs>
		<clipPath id="SVGID_2_">
			<use xlink:href="#SVGID_1_"  style="overflow:visible;"/>
		</clipPath>
		<ellipse class="st4" cx="418.3" cy="306.3" rx="65" ry="128.9"/>
	</g>
	<g>
		<defs>
			<rect id="SVGID_3_" x="128.8" y="141.4" width="577.6" height="330.1"/>
		</defs>
		<clipPath id="SVGID_4_">
			<use xlink:href="#SVGID_3_"  style="overflow:visible;"/>
		</clipPath>
		<path class="st5" d="M460.6,355.7c-54.1,46.3-116.9,61.7-140.2,34.4c-23.3-27.3,1.6-86.9,55.7-133.2s116.9-61.7,140.2-34.4
			C539.6,249.7,514.7,309.4,460.6,355.7z"/>
	</g>
	<g>
		<defs>
			<rect id="SVGID_5_" x="128.8" y="141.4" width="577.6" height="330.1"/>
		</defs>
		<clipPath id="SVGID_6_">
			<use xlink:href="#SVGID_5_"  style="overflow:visible;"/>
		</clipPath>
		<path class="st6" d="M459.6,256.1c55,45.2,81.1,104.4,58.2,132.1c-22.8,27.7-85.9,13.5-140.9-31.7s-81.1-104.4-58.2-132.1
			C341.6,196.6,404.7,210.8,459.6,256.1z"/>
	</g>
	<g>
		<defs>
			<rect id="SVGID_7_" x="128.8" y="141.4" width="577.6" height="330.1"/>
		</defs>
		<clipPath id="SVGID_8_">
			<use xlink:href="#SVGID_7_"  style="overflow:visible;"/>
		</clipPath>
		<path class="st7" d="M505.4,212.1c0,2.9-2.3,5.2-5.2,5.2c-2.9,0-5.2-2.3-5.2-5.2s2.3-5.2,5.2-5.2
			C503.1,206.9,505.4,209.2,505.4,212.1"/>
	</g>
</g>
<g class="st8">
	<path class="st2" d="M408.8,326.4h-1l0.6-1.9h0.9L408.8,326.4z"/>
</g>
</svg>
